<?xml version="1.0" encoding="UTF-8"?>
<svg id="Laag_2" data-name="Laag 2" xmlns="http://www.w3.org/2000/svg" viewBox="0 0 1015 449.04">
  <defs>
    <style>
      .cls-1 {
        stroke-width: 11px;
      }

      .cls-1, .cls-2, .cls-3, .cls-4 {
        stroke: #000;
        stroke-miterlimit: 10;
      }

      .cls-1, .cls-3, .cls-4 {
        fill: none;
      }

      .cls-2 {
        fill: #39b54a;
        stroke-width: .75px;
      }

      .cls-5 {
        fill: #ac4e36;
        stroke-width: 0px;
      }

      .cls-3 {
        stroke-linecap: round;
        stroke-width: 10px;
      }

      .cls-4 {
        stroke-width: 5px;
      }
    </style>
  </defs>
  <g id="Laag_1-2" data-name="Laag 1">
    <g>
      <path class="cls-5" d="M792.98,111.77l201.98,78.37,10.04,3.9v250h-200c-142.72-214.07-457.28-214.07-600,0H5v-250l12.99-5.04,208.09-80.74.25-.1c89.63-34.78,184.15-52.16,278.67-52.16s189.04,17.38,278.67,52.16l9.31,3.61Z"/>
      <g>
        <line class="cls-3" x1="5" y1="194.04" x2="5" y2="444.04"/>
        <line class="cls-3" x1="1005" y1="194.04" x2="1005" y2="444.04"/>
        <path class="cls-3" d="M5,194.04l12.99-5.04,208.09-80.74.25-.1c89.63-34.78,184.15-52.16,278.67-52.16s189.04,17.38,278.67,52.16l9.31,3.61,201.98,78.37,10.04,3.9"/>
        <path class="cls-3" d="M10,143.04L230.97,57.3l.36-.14c179.27-69.55,378.07-69.55,557.34,0l.35.14,220.98,85.74"/>
        <line class="cls-3" x1="5" y1="444.04" x2="205" y2="444.04"/>
        <line class="cls-3" x1="1005" y1="444.04" x2="805" y2="444.04"/>
        <path class="cls-3" d="M205,444.04c142.72-214.07,457.28-214.07,600,0"/>
        <polyline class="cls-3" points="505 13.04 505 56 505 56.04"/>
        <polyline class="cls-3" points="789 57.04 789.02 57.3 792.98 111.77 793 112.04"/>
        <polyline class="cls-3" points="231 57.04 230.97 57.3 226 108.04"/>
        <polyline class="cls-3" points="10 143.04 17.99 189 18 189.04"/>
        <line class="cls-3" x1="1010" y1="143.04" x2="995" y2="190.04"/>
      </g>
    </g>
    <line class="cls-4" x1="95" y1="449.04" x2="95" y2="162.04"/>
    <line class="cls-4" x1="908" y1="444.04" x2="908" y2="157.04"/>
    <g>
      <line class="cls-4" x1="5" y1="248.04" x2="95" y2="248.04"/>
      <line class="cls-4" x1="5" y1="364.04" x2="95" y2="364.04"/>
      <line class="cls-4" x1="34" y1="248.04" x2="34" y2="364.04"/>
      <line class="cls-4" x1="73" y1="248.04" x2="73" y2="168.04"/>
      <line class="cls-4" x1="34" y1="327.04" x2="95" y2="327.04"/>
      <line class="cls-4" x1="59" y1="364.04" x2="59" y2="444.04"/>
      <line class="cls-4" x1="5" y1="421.04" x2="59" y2="421.04"/>
      <line class="cls-4" x1="73" y1="208.04" x2="5" y2="208.04"/>
    </g>
    <g>
      <line class="cls-4" x1="1002" y1="243.04" x2="908" y2="243.04"/>
      <line class="cls-4" x1="1002" y1="359.04" x2="908" y2="359.04"/>
      <line class="cls-4" x1="971.71" y1="243.04" x2="971.71" y2="359.04"/>
      <line class="cls-4" x1="930.98" y1="243.04" x2="930.98" y2="163.04"/>
      <line class="cls-4" x1="971.71" y1="322.04" x2="908" y2="322.04"/>
      <line class="cls-4" x1="945.6" y1="359.04" x2="945.6" y2="439.04"/>
      <line class="cls-4" x1="1002" y1="416.04" x2="945.6" y2="416.04"/>
      <line class="cls-4" x1="930.98" y1="203.04" x2="1002" y2="203.04"/>
    </g>
    <line class="cls-1" x1="205.5" y1="443.54" x2="805.5" y2="443.54"/>
    <g>
      <path class="cls-2" d="M164.03,242.46c5.33-1.73,10.76-3.19,16.01-4.64,1.52-.42,3.07-1.11,4.64-1.42,6.02-1.09,11.43-.27,15.54,3.33,1.25,1.16,2.37,2.38,3.41,3.77.36.5.67.89,1.57.51.89-.38,1.17.29,1.66.74,3.51,3.73,5.89,8.08,7.15,12.88.59,2.48,1.19,4.96,2.45,7.3.14.33.15.72.17,1.1.88,6.65,1.14,13.44.04,20.18-.17.6-.39,1.08-.2,1.52,1.03,3.73-1.76,6.78-2.42,10.09-.09.43-.4.7-.92.8-.93.15-.44-.99-1.22-1.16-.37,1.74-.54,3.26-1.11,4.83-.88,2.76-1.63,5.47-2.82,8.13-1.23,2.54-2.43,4.82-4.06,7.04-1.34,1.95-1.24,2.44-.21,4.34-1.95.92-4,1.64-5.75,3.28-1,1.15-2.76,2.14-4.47.98-.58.55-.43,1.15-.61,1.64-.65.99-.73,2.24-2.42,2.54-1.86.26-2.97-.26-3.56-1.71-1.5-3.55-3.63-6.64-5.01-10.24-1.49-3.82-3.37-7.58-5.67-10.98-3.07-4.63-5.85-9.55-8.39-14.58-1.45-3.17-3.26-6.15-4.77-9.15-2.38-4.71-4.95-9.19-6.53-14.18-.76-2.44-2.64-4.31-3.53-6.69-.31-.92-.81-1.61-.43-2.74.5-1.19-.52-2.29-1.06-3.36-.2-.71-.65-1.29-1.13-2.25-.89.45-1.72,1-2.79,1.41-1.45.6-1.5.49-1.39-1.18.16-2.51,2.21-3.54,4.3-4.45,1.33-.53,2.66-1.05,3.65-1.94.2-.23.1-.45,0-.66-1.31-1.36-1.23-1.53.9-2.05,3.08-.84,5.96-2.1,9-3.01ZM162.82,250.76c2.39,1.38,2.77,4.13,4.77,5.7,2.62,5.79,5.58,11.3,8.69,16.86,2.42,4.43,4.41,9.2,7.18,13.46,2.24,3.45,3.74,7.52,6.69,10.64.17.05.22.16.27.27,1.14,3.31,3.41,5.95,5.01,9.04.36.76.77,1.63,1.65,2.27.96-3.11,1.26-6.16,1.85-9.22-1.05.22-1.12,1.31-2.16,1.54-.09-.49.17-.87.3-1.2.8-1.7,2.11-3.23,2.41-5.08,1.28-8.52,1.84-17.05,1.49-25.55-.11-1.26-.23-2.52-.76-3.73-1.08-2.8-1.99-5.55-3.15-8.18-.45-1.37-.91-2.75-1.86-3.9-3.32-3.78-7.41-6.84-12.31-8.84-.58-.26-1.06-.31-1.72-.41-3.43-.42-6.96-.65-10.44,1.25-.26.12-.43.07-.74.08-2.23.91-4.48,1.45-6.6,2.6-1.61.9-1.85,1.69-.57,2.4ZM187.81,243.82c.23.16.58.27.98.48-.1-1.27-.55-1.59-1.58-1.14-.11.44.24.55.6.65ZM210.8,254.55c-.53-3.03-2.65-5.27-4.48-7.49.66,2.98,3.25,4.88,4.48,7.49Z"/>
      <path class="cls-2" d="M234.82,250.22c.05.88-2.18,1.48-2.13,2.36.68.25,1.22-.21,1.59-.74,2.25-2.41,4.2-3.79,8.04-3.94.72-.01,1.56-.07,2.15-.03,1.47.1,1.72,0,2.94.2.56.09,1.12.19,1.68.28,2.14.37,6.19,4.15,7.85,7.64,1.21,2.62,1.6,4.52,1.58,7.59-.09,1.31.15,2.75-1.29,3.78-.45.29-.33.63-.33,1.01-1.6,1.73-2.17,3.21-4.6,5.26-1.18.95-2.02,2.03-3.07,2.94-1.49,1.2-2.44,2.72-3.99,4.47,1.96,2.21,3.38,4.48,5.75,6.02,1.43.87,2.35.78,3.77,1.65,1.95,1.19,3.26,1.09,5.04-.34,5.2-4.33,7.36-4.71,11.57-10.12,1.42-1.76,1.27-2.22,3.26-3.53,1.06-.87,1.6-1.68,2.47-2.73.29-.35.5-.93,1.31-.94,1.2,2.38-.31,3.14-1.26,4.72-.45.66-.98,1.09-1.2,2.05-.83,1.54-4.47,5.85-4.86,6.24-2.2,2.17-1.36,1.11-3.15,3.66-.48.55-1.94,2.1-2.37,2.76-1.46,1.93-3.47,2.67-4.17,3.69-1.67,2.4-5.2,3.73-7.87,4.88-1.65.63-3.98.89-6.08.04-3.84-1.46-6.9-2.95-9.48-5.92-.42-.35-.55-.68-.81-.97-1.19-1.59-1.99-2.17-2.83-3.9-.36-.89-1.74-3.96-2.63-5.8-1.64-3.35-3.32-8.88-3.81-12.57-.63-4.4-1.25-8.81.3-13.3.92-2.43,2.33-4.4,4.68-5.82.38-.15,1.51-.97,1.94-.62ZM246.32,291.32c2.09,1.5,4.06,3.06,6.81,3.16.03-.27.11-.43.18-.58-1.38-.76-2.68-1.67-4.14-2.27-1.62-.66-2.35-2.18-3.83-3.15-.45,1.33.02,2.18.97,2.84ZM237.34,255.3c-.78,2.1-.11,5.31.5,7.26,1.14,4.06,3.35,7.97,4.33,11.96.3.78.61,1.95,1.2,2.75.81-.44,1.55-2.14,1.95-2.55,1.4-1.82,2.28-3.56,3.54-5.06,1.63-2.01.76-3.61.42-6.43,0-.38-.33-1.28-.33-1.67-.21-1.71-1.41-3.83-2.16-4.7-1.25-1.46-1.96-2.22-2.67-3.36-.59-.81-1.51-1.74-2.39-1.8-3.19-.08-3.45.79-4.39,3.58ZM255.89,293.18c-.86-.83-1.62-1.06-2.49-.85.65.65,1.22,1.08,2.49.85Z"/>
      <path class="cls-2" d="M308.59,190.84c2.47-.52,4.53-.92,6.28-1.98,1.27-.69,2.52-.88,3.91-1.1,2.1-.27,4-.11,5.72.46,2.45.65,4.27,2.32,4.92,4.51.79,2.16,1.04,4.44,1.16,6.75.15,1.24.3,2.48.45,3.72,0,.62.14,1.2-.2,1.53-1.51,1.34-.72,2.88-1.18,4.47-.79.19-1.67.03-2.38.57-1.94,1.21-4.01.74-5.3-1.05-.6-.72-.83-1.65-1.04-2.46-.93-2.61-1.74-5.26-2.57-8.02-.48-1.36-1.37-2.63-1.99-3.95-.37-.9-1.19-1.31-2.19-1.3-4.35-.14-8.07,2.21-9.08,5.96-.69,2.79-1.66,5.54-1.76,8.31-.12,4.26-.22,8.52,1.45,12.54,1.22,2.9,1.65,6.02,2.58,8.87.67,2.43,1.56,4.67,2.1,7.14,1.6,7.28,5.71,13.86,7.68,21.16.09.35.31.66.41,1.01-.26,3.93,2.39,6.31,4.78,8.9,1.48,1.59,1.99,1.58,3.7.13,2.66-2.31,4.21-4.94,7.4-6.86.68-.42.94-.98.73-1.79-1.99-6.92-2.88-14.25-4.74-21.2-.03-.12-.09-.35-.27-.55-2.85-.03-5.54-.46-8.38.65-1.24.45-1.7-.8-2.27-1.39.1-.65.58-.9,1.09-1.03,3.45-.9,6.48-2.9,9.74-4.08.17-.04.34-.08.51-.13,1.01-1.98,1.82-.94,2.74.07.16.09.54,0,.83.05.52-1.24-.3-2.39.35-3.66,1.19-.16,2.29.44,3.57.14.77-.18.94.52,1.07,1.1.78,2.16,1.8,4.26,2.32,6.48.7,2.43,1.11,4.79,1.94,7.19,1.64,4.79,2.43,9.91,3.81,14.76.84,2.51,1.31,5.12,2.15,7.63.69,2.43.25,4.99-1.85,6.96-.31.32-.17.9-.75,1.16-2.86-1.79-5.05-4.47-8.04-6.08-1.18-.57-1.4-2-2.16-2.93-.86.21-1.08.89-1.33,1.45-1.22,2.41-2.3,4.79-4.82,6.06-.79,1.94-2.19,2.06-3.61,3.06-1.63,1.18-3.71,1.62-5.71,1.92-1.72.35-3.36.56-5.11.8-2.51.33-6.07.24-7.92-2.47-1.18-1.78-2.57-4.25-3.97-5.84-1.59-1.78-2.24-3.96-2.89-6.15-1.33-4.49-3.27-7.79-4.83-12.08-1.02-2.95-1.25-6.01-1.85-8.96-.38-1.26-.5-2.61-.97-3.72-1.24-2.76-1.07-5.94-2.18-8.74-1.59-3.91-.99-8.09-1.22-12.28.09-.65.22-1.19.18-1.8-.7-5.3,1.5-10.07,4.55-14.67.88-1.49,2.37-2.91,3.56-4.36.24-.19.48-.38.61-.42,3.9-1.07,6.09-4.26,9.04-6.27,1.64-.93,3.5-1.03,5.48-1.78-.64,2.02-2.96,1.99-4.29,3.58ZM292.31,224.86c.55,2.84,1.14,5.79,1.86,8.71.1.34.33.65,1.1.43-1.01-3.45-1.64-7.02-1.84-10.59-.03-.12-.36-.27-.56-.46-.68.57-.77,1.23-.57,1.92Z"/>
      <path class="cls-2" d="M363.32,218.69c.05.23.25.56.42.77.02.12.18.21.35.42,1.46-1.51,2.77-3.11,4.25-4.61,2.84-2.86,5.66-3.87,9.61-3.71,2.18.1,4.47.81,6.34,2.32-.45,1.29-1.61,1.61-2.73,1.32-.98-.2-1.5-.11-1.92.58-.75,1.11-2.29.77-2.71,2.19-.23.24-.45.49-.67.73-3.54,1.98-5.78,4.36-6.9,8.24-.37,1.54.13,2.78-.64,4.28-.61.97-.68,1.97-.3,3.24.54,2.09,1.1,4.31,1.52,6.43,1.04,4.69,2.44,9.18,3.45,13.75.51,1.98.75,3.89,1.14,5.89.2,1.06-.78,5.16-1.27,5.87-1.96-1.57-3.33-1.42-4.8.72-.68,1-1.39.04-1.97.28-.41.45.15.71.1,1.08-.16.03-.32.07-.49.1-2.92-1.84-4.63-4.42-5.35-7.83-.8-4.98-2.34-9.81-3.93-14.74-.73-2.18-1.06-4.31-1.28-6.6-.12-3.04-.74-5.98-1.5-8.88-.28-1.29-.29-2.64-.57-3.93-.37-2.38-.97-4.58-2.1-6.67-.34-.3-.46-.88.16-1.14.6-.37.75.33,1.19.48,1.05-.83.44-1.81.24-2.75.9-.92,2.23-1.08,2.82-2.18.19-.41.74-.4,1.18-.24,2.75.78,5.6,1.44,6.36,4.6ZM383.96,217.46c-.11.14-.35.3-.37.18-2.2-.35-3.73.16-5.14,1.26-.78.87-1.72,1.65-3.12,2.02.22-1.02,1.1-1.3,1.54-1.86.22-.24.45-.49.67-.73.76-.26,1.18-.94,2.01-1.57,1.96-1.08,2.79-.97,4.42.7Z"/>
      <path class="cls-2" d="M401.51,205.95c.09.59-.65,1.07-.55,1.78,1.07-.04,2.51.61,2.5-1.33-.05-.36.49-.31.74-.47,3.78-.9,7.04.24,10.3,1.64.13-.02.43.19.46.43,1.18,1.91,3.07,3.12,4.84,4.6,1.93,1.7,2.35,4.07,3.38,6.12.4,1.16.67,2.34.94,3.51.3,2.5,1.23,4.93,1.91,7.39.52,2.24,1.16,4.46.02,6.76-.41.89-.52,2.12-.41,3.07.45,2.73-.29,5.11-1.39,7.54-.88,2.16-1.78,4.09-2.76,6.27-.8,1.67-2.48,2.25-4,3.06-2.25-1.76.74-2.03.84-3.14-.79-.26-1.47.32-1.94.62-1.82,1.45-3.96,2.36-5.8,3.59-1.48,1.06-3.08,1.29-4.95.6-2.8-1.04-5.55-2.43-8.08-3.97-2.98-1.95-5.23-4.74-6.81-8-1.9-4.43-2.42-8.96-2.94-13.62-.74-4.38-.3-8.83.45-13.21.97-4.66,2.9-8.51,7.5-11.03,1-.52,1.83-1.25,2.69-1.86.99-.63,1.91-.77,3.06-.33ZM401.71,211.98c-.15,1.72-.86,3.28-1,5-.28,1.74-.69,3.38-.15,5.24.48,2.35,1.24,4.79,1.21,7.22,0,1.82.13,3.5.63,5.12.19,1.3.53,2.71.6,4.03.28,4.45,1.79,8.47,4.83,11.9.32.44.53,1.01,1.24.67,1.66-.84,2.22.41,2.88,1.53,1.08-.39,1.75-1.09,1.91-1.72,2.01-2.94,2.6-6.16,2.56-9.42-.14-4.94-.52-9.86-1.03-14.75-.52-3.32-1.04-6.64-1.56-9.96-.46-2.48-1.8-4.61-4.24-5.85-1.29-.67-2.54-.99-3.76-.09-1.23.78-2.65,1.1-4.13,1.08ZM415.56,257.9c.48-.19.8-.59.47-1.15-.2-.58-.54-.29-1.14-.09-.34.29-.71.34-.98,1.1.53.17,1.16.2,1.65.14Z"/>
      <path class="cls-2" d="M446.22,201.63c-.19.86-2.47.82-2.66,1.68.57.43,1.21.13,1.71-.27,2.79-1.69,5-2.48,8.68-1.55.68.19,1.49.37,2.04.57,1.37.5,1.63.48,2.74,1.01.5.25,1.01.49,1.51.74,1.93.95,4.75,5.7,5.37,9.51.44,2.86.3,4.79-.56,7.73-.44,1.23-.61,2.68-2.25,3.27-.51.15-.48.51-.59.88-1.98,1.22-2.93,2.49-5.79,3.78-1.37.58-2.46,1.39-3.7,1.97-1.74.74-3.05,1.94-4.99,3.19,1.26,2.66,1.99,5.25,3.82,7.38,1.12,1.23,2.01,1.4,3.12,2.63,1.52,1.69,2.79,1.95,4.87,1.07,6.11-2.72,8.25-2.49,13.72-6.52,1.83-1.3,1.81-1.78,4.06-2.49,1.24-.54,1.98-1.17,3.09-1.94.37-.26.73-.75,1.5-.55.49,2.62-1.15,2.93-2.48,4.19-.61.51-1.23.78-1.69,1.64-1.21,1.25-5.83,4.38-6.31,4.66-2.68,1.48-1.59.69-3.98,2.64-.6.4-2.41,1.48-3,2-1.9,1.45-4.01,1.6-4.95,2.39-2.23,1.85-5.94,2.14-8.78,2.51-1.73.15-4.01-.25-5.77-1.65-3.24-2.47-5.73-4.74-7.37-8.32-.3-.45-.34-.81-.5-1.15-.7-1.86-1.29-2.64-1.62-4.54-.1-.96-.58-4.28-.92-6.3-.65-3.67-.74-9.45-.2-13.13.59-4.4,1.19-8.81,3.88-12.69,1.53-2.08,3.39-3.58,6-4.29.4-.04,1.69-.51,2-.05ZM445.99,244.3c1.58,2.03,3.02,4.06,5.6,4.93.1-.25.22-.38.33-.51-1.1-1.11-2.08-2.35-3.31-3.33-1.36-1.08-1.63-2.75-2.77-4.09-.78,1.16-.57,2.1.15,3ZM447.23,207.21c-1.31,1.8-1.54,5.07-1.49,7.12-.02,4.22,1.02,8.58.86,12.69.07.84.05,2.04.39,2.98.88-.2,2.05-1.62,2.54-1.91,1.82-1.36,3.13-2.79,4.73-3.88,2.09-1.48,1.7-3.26,2.14-6.06.1-.37.03-1.33.14-1.69.27-1.7-.3-4.07-.78-5.12-.79-1.75-1.26-2.67-1.62-3.97-.34-.94-.96-2.09-1.78-2.39-3-.96-3.48-.2-5.13,2.23ZM454.55,248.74c-.58-1.04-1.25-1.46-2.13-1.51.44.81.87,1.37,2.13,1.51Z"/>
      <path class="cls-2" d="M514.52,201.51c.18.16.35.32.53.48.66,2.4,2.23,4.57,2.34,7.33-.03,5.76-.07,11.52-.61,17.16-.27,2.88.1,5.76-.04,8.52-.14,2.16.74,4.2,1.23,6.25.25,1.2,3.87,2.55,4.88,1.85,4.43-2.82,8.01-4.78,12.52-7.53.39-.23.64-.34,1.14.03-.68,1.54-1.4,4.16-3.31,4.95-2.17,1.02-4.34,2.29-5.75,4.43-1.03,1.54-2.04,2-3.79,2.82-1.39,1.3-2.01,1.53-4.01,2.11-.88.59-1.75,1.31-3.24,1.42-3.47.22-6.57-1.08-8.34-4.07-2.02-3.11-2.82-6.57-2.98-10.05-.3-3.96-.34-7.8-.26-11.76-.07-6.12,0-11.64,1.38-17.65.38-1.68.11-2.52-.17-4.2-.28-1.68-1.75-2.62-3.45-1.04-4.71,4.15-7.9,7.83-9.96,13.52-1.2,3.64-.97,7.11-.48,10.58.17,1.44.21,2.87.12,4.32-.23,5.41-.57,10.94-.17,16.33.04,1.32-.45,1.81-1.93,2.22-.61.26-.98.63-1.34.88-1.7,1.26-3.07,1.07-4.38-.8-.4-.59-.8-1.41-1.57-1.74-.61.39-.21.97-.44,1.46-1.14-.43-1.43-1.38-1.85-2.32-1.12-2.71-2.13-5.43-2.15-8.43-.26-5.51-.64-10.9-.9-16.42-.33-7.03-.66-14.06-1-21.1-.08-1.68.05-1.69,1.79-1.52.67.09,1.34.18,1.99-.09,1.18-.53,2.39-.22,3.21.35,1.23.79,2.58,1.35,3.8,2.15,1.36.92,1.92,2.1,1.84,3.66-.06,2.4.54,4.67,1.13,7.05.9-.63,1.14-1.35,1.38-1.96,1.22-3.28,3.39-6.09,5.59-8.78,2.59-2.93,5.78-3.83,9.91-3.26,2.93.34,4.93,1.9,7.31,2.86Z"/>
      <path class="cls-2" d="M544.45,199.37c-.3.83-2.55.5-2.84,1.33.51.5,1.18.28,1.73-.06,2.98-1.32,5.27-1.83,8.8-.45.65.27,1.44.55,1.95.82,1.29.67,1.56.68,2.59,1.34.47.31.94.61,1.41.92,1.8,1.18,3.99,6.25,4.13,10.11.08,2.89-.31,4.79-1.53,7.6-.59,1.16-.94,2.59-2.64,2.96-.52.09-.54.45-.69.8-2.12.96-3.21,2.1-6.22,3.03-1.43.41-2.62,1.07-3.92,1.49-1.82.52-3.27,1.54-5.35,2.54.91,2.8,1.31,5.46,2.86,7.8.95,1.36,1.82,1.64,2.77,3.01,1.3,1.86,2.53,2.28,4.69,1.68,6.4-1.93,8.5-1.43,14.43-4.74,1.98-1.06,2.02-1.54,4.34-1.96,1.3-.38,2.11-.92,3.31-1.54.4-.21.82-.65,1.56-.35.16,2.66-1.51,2.76-2.99,3.85-.67.43-1.32.62-1.89,1.42-1.36,1.09-6.33,3.61-6.85,3.82-2.84,1.13-1.67.49-4.29,2.12-.65.32-2.58,1.16-3.23,1.6-2.07,1.2-4.18,1.08-5.21,1.75-2.45,1.55-6.16,1.38-9.02,1.38-1.74-.07-3.94-.75-5.51-2.36-2.9-2.85-5.09-5.43-6.26-9.18-.24-.49-.23-.85-.35-1.21-.46-1.93-.95-2.78-1.03-4.7.02-.96-.03-4.32-.12-6.36-.18-3.72.45-9.47,1.45-13.05,1.14-4.29,2.29-8.59,5.44-12.1,1.78-1.87,3.81-3.12,6.49-3.5.4.01,1.74-.29,1.99.2ZM538.85,241.67c1.31,2.21,2.48,4.41,4.93,5.59.13-.23.26-.35.39-.46-.95-1.24-1.77-2.6-2.86-3.72-1.21-1.25-1.27-2.93-2.23-4.4-.92,1.05-.83,2.01-.23,2.99ZM544.75,205.03c-1.52,1.62-2.17,4.84-2.38,6.87-.55,4.18-.07,8.64-.74,12.7-.03.84-.21,2.03.01,3,.9-.09,2.24-1.35,2.76-1.57,1.98-1.12,3.45-2.37,5.17-3.25,2.26-1.21,2.09-3.02,2.88-5.74.15-.35.2-1.31.35-1.66.48-1.66.21-4.07-.13-5.17-.56-1.83-.91-2.81-1.11-4.14-.22-.97-.68-2.2-1.46-2.59-2.85-1.33-3.42-.64-5.36,1.56ZM546.78,247.16c-.45-1.1-1.05-1.61-1.92-1.77.34.86.69,1.47,1.92,1.77Z"/>
      <path class="cls-2" d="M634.74,173.81c2.46.49,4.5.93,6.52.65,1.43-.14,2.65.18,4.01.53,2.02.58,3.71,1.47,5.06,2.67,1.99,1.56,3,3.81,2.74,6.08-.12,2.29-.79,4.49-1.59,6.66-.35,1.2-.7,2.4-1.05,3.59-.24.57-.34,1.16-.78,1.32-1.91.64-1.79,2.37-2.84,3.65-.8-.14-1.54-.63-2.4-.41-2.25.35-3.96-.9-4.44-3.05-.27-.89-.12-1.84.02-2.67.17-2.77.48-5.51.8-8.38.09-1.44-.22-2.95-.27-4.42.02-.97-.57-1.67-1.5-2.06-3.92-1.83-8.25-1.14-10.64,1.91-1.73,2.3-3.69,4.44-4.87,6.95-1.78,3.87-3.54,7.75-3.59,12.1-.03,3.15-.85,6.18-1.12,9.17-.34,2.5-.41,4.91-.88,7.39-1.39,7.32-.23,14.99-1.28,22.48-.05.36.03.73-.02,1.09-1.78,3.51-.3,6.74.88,10.06.73,2.04,1.2,2.23,3.33,1.58,3.34-1.08,5.79-2.89,9.46-3.4.79-.12,1.24-.53,1.38-1.36.9-7.15,2.96-14.23,3.99-21.36.02-.12.06-.36-.03-.61-2.59-1.15-4.89-2.6-7.92-2.7-1.31-.08-1.25-1.4-1.53-2.17.35-.56.89-.6,1.41-.52,3.51.53,7.07-.12,10.51.08.17.03.35.06.52.09,1.71-1.42,2.03-.15,2.48,1.14.11.14.5.21.74.37.96-.93.66-2.32,1.76-3.23,1.15.32,1.92,1.31,3.22,1.53.78.14.65.85.55,1.44-.14,2.29-.02,4.63-.42,6.87-.31,2.5-.86,4.84-1.05,7.37-.38,5.05-1.67,10.06-2.3,15.07-.22,2.64-.81,5.22-1.03,7.86-.32,2.5-1.73,4.68-4.43,5.67-.41.17-.51.76-1.14.78-1.92-2.77-2.87-6.09-4.98-8.75-.85-.99-.5-2.39-.82-3.54-.87-.14-1.34.39-1.79.81-2.06,1.74-3.99,3.5-6.79,3.68-1.49,1.47-2.81,1.03-4.5,1.39-1.95.44-4.03.03-5.97-.48-1.71-.36-3.28-.81-4.98-1.27-2.42-.68-5.63-2.16-6.25-5.38-.38-2.1-.68-4.92-1.33-6.93-.75-2.26-.49-4.53-.23-6.79.54-4.65.08-8.45.34-13.01.23-3.11,1.22-6.02,1.82-8.97.15-1.31.57-2.59.57-3.8-.05-3.03,1.35-5.88,1.43-8.89.08-4.22,2.26-7.83,3.69-11.77.34-.56.67-1.01.87-1.59,1.44-5.15,5.32-8.67,9.9-11.7,1.39-1.03,3.3-1.74,4.96-2.61.29-.08.58-.16.72-.14,3.99.55,7.23-1.52,10.72-2.21,1.87-.21,3.61.43,5.71.51-1.38,1.6-3.49.67-5.33,1.61ZM606.54,198.68c-.61,2.83-1.23,5.77-1.72,8.74-.04.36.05.73.84.82.43-3.57,1.25-7.1,2.48-10.46.01-.12-.22-.39-.33-.64-.84.26-1.18.82-1.27,1.54Z"/>
      <path class="cls-2" d="M673.99,220.93c-.05.23,0,.61.09.88-.03.12.08.26.16.52,1.94-.81,3.77-1.77,5.72-2.57,3.74-1.51,6.73-1.33,10.32.37,1.97.95,3.8,2.5,4.93,4.63-.93,1.01-2.12.85-3.04.13-.82-.57-1.34-.69-2-.23-1.12.72-2.41-.19-3.36.94-.3.14-.61.27-.91.41-4.04.43-7.04,1.73-9.6,4.86-.95,1.27-.97,2.61-2.27,3.68-.94.66-1.4,1.54-1.55,2.86-.33,2.14-.68,4.39-1.14,6.51-.88,4.72-1.38,9.4-2.24,14-.31,2.02-.84,3.87-1.27,5.86-.23,1.05-2.75,4.44-3.48,4.9-1.18-2.21-2.51-2.62-4.7-1.23-1.02.65-1.29-.51-1.93-.52-.56.25-.14.71-.34,1.03-.16-.03-.32-.07-.49-.1-1.96-2.84-2.51-5.88-1.84-9.3,1.22-4.89,1.71-9.94,2.2-15.1.19-2.29.73-4.38,1.42-6.57,1.09-2.84,1.67-5.79,2.12-8.75.26-1.3.77-2.54,1.02-3.83.59-2.33.91-4.59.7-6.96-.19-.4-.08-.99.6-.98.7-.11.56.6.9.91,1.29-.35,1.11-1.49,1.3-2.43,1.19-.5,2.47-.11,3.45-.9.33-.3.83-.07,1.18.24,2.22,1.8,4.58,3.53,4.04,6.73ZM693.49,227.93c-.16.09-.44.14-.41.02-1.89-1.19-3.5-1.33-5.24-.87-1.07.49-2.23.84-3.67.63.6-.85,1.53-.76,2.15-1.11.3-.14.61-.27.91-.41.8.06,1.45-.4,2.47-.66,2.23-.22,2.96.21,3.8,2.38Z"/>
      <path class="cls-2" d="M731.33,232.8c1.48,2.56,1.72,5.01.21,7.32-.07.23-.14.46-.2.69-.12,3.22-1.03,5.33-2.45,8.28-.52.85-.29,1.92-.57,2.84-1.04,3.95-1.98,8.05-3.39,11.89-.44,1.5-1.81,3.84-2.37,5.3-.46,1.11-.57,2.83-.55,4.09,1.75.77,3.01.53,4.82-.18,4.54-.13,11.04-3.74,13.5-4.21-.32,1.41-1.44,2.81-3.61,4.14-1.62.87-6.08,2.36-7.77,3.1-2.28.93-5.3,1.77-7.69,2.31-2.58.73-5.03.64-8.5-.48-1.21-.34-1.51-1.55-1.89-2.53-.31-1.21-.6-2.04-1.11-3.05-.61-.17-1.07.08-1.41.36-.34.28-.86.76-1.23.66-1.61-.32-2.29.74-4.17.98-2,.21-2.54-.68-4.39-1.05-.73-.19-1.46.11-.24.43,2.78.74-.73.79-4.3-.37-1.66-.56-5.07-2.4-5.76-3.8-1.88-3.92-2.3-4.89-1.74-7.72.29-1.54.57-3.07.85-4.61.85-4.61,3.48-7.31,6.25-9.34,3.29-2.52,6.89-3.48,11.29-3.32,2.17-.05,4.38.29,6.52-.13,1.55-.2,2.4,1.15,4.04,1.1,1.37-2.98,2.43-8.79,3.04-11.98.51-1.85,0-2.49-2.12-2.32-4.23.34-6.92.13-11.19-.85-.42.02-.9-.23-1.22-.06-2.98.97-4.07-1.77-6.1-2.4.07-.85.46-.75.72-.69,3.55.01,7.21-.29,9.47.05,2.93.39,5.43-.19,8.37-.26,1.39,0,1.97-.09,3.32.04,1.58.31,2.81.9,3.91,1.96,1.13.94,2.06,2.08,3.63,2.4.62-.7-.03-.88-.67-1.56-1-.41-1.32-1.25-.41-.99,1.94.55,4.09,2.3,5.13,3.98ZM688.9,265.84c.74.68.75,1.67,1.37,2.32.74.68.81,1.93,2.42,2.22-.95-1.85-1.98-3.47-2.43-5.31-.13-.53-.71-2.4-1.11-.77-.14.58-.9,1.01-.25,1.55ZM712.75,248.99c-.66.44-.88.75-1.51.58-.38-.1-.6-.29-1.5.09-1.5.59-1.72.9-3.19,1.38-1.47.48-2.74,1.26-3.57,2.41-3.58,4.52-4.63,10.7-3.23,12.8,1.04,1.51,1.49,2.75,3.24,2.6,1.19-.06,4.28-.83,5.48-.87.8-.03,1.14-.8,1.37-1.61.16-.58.23-1.31.58-2.08.82-2.01.35-4.14,1.8-7.47.7-1.55.58-3.08,1.4-4.59.76-1.28.7-2.05,1.12-3.55-.53-.02-1.63.05-1.98.33Z"/>
      <path class="cls-2" d="M768.66,243.38c.3.36.56.45,1.06.24,1.13-.37,1.98.06,2.59,1.16.21.2.56.45.73.77,2.44,2.78,3.17,5.86,2.07,9.29-.53,1.85-.94,3.74-2.79,4.99-1.32.93-2.97,1.23-4.36,2-.16.07-.74.12-.95-.08-1.08-.89-1.94-.05-3.13.17-.59-1.48-.53-2.86-.1-4.1.87-2.11,1.75-4.22,2.5-6.37,1.23-3.51-.43-6.5-2.97-7.37-1.1-.5-2.11-.46-2.92.28-.94.7-1.97,1.24-2.9,1.94-.9.58-1.96,2.51-2.05,3.62-.19.57-.25,1.18-.69,1.67-1.84,2.17-2.45,4.88-3.41,7.34-.49,1.48-.82,2.89-.66,4.46-.04.11.05.27,0,.38-1.13,2.15-.74,4.69-1.5,6.96-1,2.58-1.78,5.35-1.42,8.26.18,1.07.35,2.14.84,3.07.74,1.39,1.82,2.14,3.53,2.22,4.15.42,7.35,1.3,11.28.55,2.77-.53,5.99-1.14,9.2-2.75,1.18-.58,2.6-.69,4.02-1.18,1.1-.35,2.44-.23,3.68.51-1.21,1.72-3.17,2.13-5.12,2.93-.77.35-1.55.7-2.32,1.05-1.02.52-2.44,1.01-5.74,2.22-1.45.62-2.69.67-4.85,1.04-.72.12-3.15.52-3.83.54-2.94-.03-4.06-1.05-6.68-.44-3.21.79-6.09.7-8.19-2.15-.65-.85-1.33-1.2-2.28-1.14-.95.07-1.55-.13-2.15-.71-3.56-3.69-4.86-7.99-4.03-12.76.32-2.29.72-4.43,1.4-6.6,1.87-5.95,3.61-11.95,6.45-17.47,1.33-2.47,2.63-4.83,4.42-6.91,1.34-1.59,2.88-2.86,5.73-2.07.89.29,2.05-.22,3.09-.38,3.88-.62,7.43.32,10.32,3.1.65.6,1.46,1.14,2.1,1.74ZM750.28,251.99c.72-.52,2.79-4.26,2.17-5.35-1.11.39-2.41,4.39-2.17,5.35Z"/>
      <path class="cls-2" d="M801.5,228.2c.74-.36,1.04-1.14,1.86-.57.74.41.52.97.35,1.42-.13,1.11-.35,2.05.81,2.89.47.31.3.76.3,1.15-.23,2.49-.08,5.13-.67,7.73-.36,1.28-1.23,2.35-1.46,3.68-.39,3.59-2.06,6.67-3.59,9.81-.75,1.9-.88,4.04-2.01,6.17,2.19-.42,3.59-1.41,5.21-2.18,2-1,4.09-1.84,6.43-2.18,3.1-.41,6.18.35,8.72,2.73,2.13,1.95,3.04,4.3,4.19,6.76.18.6-.06,1.15-.42,1.65-.53,1.21-1,2.31-1.65,3.47-.48,1.1-.59,2.36-1.06,3.46-1.05,2.42-2.54,4.52-3.59,6.94-1.5,3.14-2.36,6.43-3.34,9.67-.6,1.7-1.15,3.29-1.99,4.89-.79,1.49-1.27,3.24-2.29,4.63-.45.72-.67,1.54-.25,2.51.26.37.75.2,1.2.13.85-.02-.27.93,2.84-.06,3.33-1.15,5.81-.7,9.52-1.65,2.37-.5,4.58-.94,7.23-.77-.22.16-1.13,2.12-1.3,2.18-2.39.21-4.31.65-6.22,2.03-.55.27-1.75,1.05-2.39.89-1.79-.42-2.66.25-4.2.87-1.21.51-2.51.59-3.65,1.26-1.3.73-2.63,1.2-4.13,1.46-3.84.55-.91-.14-4.78.8-.94.25-1.66.33-2.38-.24-.26-.15-.51-.31-.77-.46-.7-.3-1.52.66-1.98-.19-.72-1.22-1.77-2.31-1.85-3.77.02-.38-.12-.7-.1-1.08.41-2.95.57-6,2.12-8.74,1.16-2.12,2.36-4.35,3.65-6.41.77-1.5,1.53-3,1.77-4.59.68-4.01,2.75-7.3,4.4-10.91,1.74-3.83,3.67-6.4,5.92-10.01.62-.78.99-1.67.18-2.53-.61-.65-1.22-1.29-2.11-1.27-.72-.04-1.23.14-1.91.38-.99.28-1.98.57-2.97.86-.34.12-.59.02-1.27.26-1.65.5-3.14,1.32-4.95,1.88-.63.14-.89.42-1.15.71-2.48,2.24-3.8,4.17-5,7.18-1.1,2.79-1.8,5.61-2.38,8.48-.72,3.59-2.11,7.04-4.15,10.1-.93,1.31-1.31,2.96-1.7,4.62-.46,1.5-1.15,2.9-2.08,4.21-.43.73-.9,1.58-2.19,1.07-.94-.37-1,1.15-2.06.74-.77-.82-1.49-1.74-2.97-1.41-.44.09-.87-.21-.97-.63-.97-2.05-1.84-4.04-.99-6.29.14-.72.43-1.5.17-2.25-.65-1.53-.1-2.99.41-4.34,1.82-4.83,3.47-9.59,5.42-14.37,1.4-3.71,2.55-7.5,3.57-11.35,1.11-4.84,2.96-9.4,4.69-14.01,2.06-5.51,4.09-10.9,6.24-16.24.67-1.8,1.7-3.34,2.98-4.77,2.22.45,3.88,1.6,4.75,3.61Z"/>
      <path class="cls-2" d="M853.27,257.68c-.27,2.53-1.13,5.31-1.76,7.93,2.72,1.03,3.61,1.73,5.13,2.06.92.31,5.9,2.08,2.86,1.39-.16.32,4.43,1.64,5.42,2.14,1.49.74,5.26,3.72,2.6,3.45-1.03-.11,1.28,1.45,1.62,2.3-2.54.73-6.34-1.19-9.27-2.09-.91-.32-2.29-1.26-4-1.83-.67-.19-3.35-.96-4.28-1.54-1.75-1.11-2.03-.84-2.68.85-1.78,4.07-2.86,8.21-4.48,12.22-1.36,3.47-2.61,7-4.41,10.13-2.03,3.95-3.02,8.13-4.54,12.2-.97,2.33-1.72,4.77-2.58,7.15-.55,1.73.14,3.26.99,4.75.19.49.53.66,1.1.67.94.02,1.89.04,2.84.06,3.97.09,7.83-.65,9.33.11.92.47-.74,2.58-3.06,2.62-2.21.09-3.43,1.09-5.24,1.27-2.25.22-2.63.7-4.79.44-.51-.12-1.36-.13-1.97-.03-3.3.66-4.94,0-8.17-1.8-.69-.33-1.01-1.14-2.12-.87-.5.16-.59-.54-.66-.97-.05-1.08,0-2.12-.05-3.2.02-.65.16-1.25-.8-1.3-.56,0-.58-.27-.66-.7-.6-2.66-.7-5.21-.02-7.93.98-3.38,2.42-6.55,3.87-9.71,2.56-5.29,4.69-10.92,7.5-16.1,2.41-4.31,4.65-8.56,6.95-12.92.3-.66.9-1.31.8-2.41-1.89-.47-6.54-2.44-6.25-3.09,1.3.45,3.84.8,5.38,1.38-1.62-1.4-4.54-1.92-6.09-2.48-2.62-1.17-3.33-1.6-2.22-4.13,2.73.94,7.39,1.97,10.24,3.01.88.4.8.23,1.15-.53.67-1.14,1.22-2.34,1.65-3.6.5-1.75,1.75-3.16,2.93-4.73,1.14-.14-.67,2.47-.34,4.07,1.69-1.34,2.32-3.03,2.82-4.78.53-1.47,1.36-2.28,3.24-2.33,2.4,2.84,2.31,5.98,2.01,8.89ZM828.52,315.13c-.21.43.42.6.38.98-.01.92,2.28,2.96,1.45.83-.7-1.8-.52-5.17-.99-5.39-.23-.11-.74,3.37-.85,3.58Z"/>
    </g>
  </g>
</svg>